<svg xmlns="http://www.w3.org/2000/svg" xmlns:xlink="http://www.w3.org/1999/xlink" width="300" zoomAndPan="magnify" viewBox="0 0 224.87999 225" height="300" preserveAspectRatio="xMidYMid meet" version="1.0"><defs><clipPath id="e34fce5b42"><path d="M 78.707031 78.769531 L 146.171875 78.769531 L 146.171875 146.230469 L 78.707031 146.230469 Z M 78.707031 78.769531 " clip-rule="nonzero"/></clipPath><clipPath id="5ac43db02f"><path d="M 89.203125 78.769531 L 135.675781 78.769531 C 141.472656 78.769531 146.171875 83.464844 146.171875 89.261719 L 146.171875 135.738281 C 146.171875 141.535156 141.472656 146.230469 135.675781 146.230469 L 89.203125 146.230469 C 83.40625 146.230469 78.707031 141.535156 78.707031 135.738281 L 78.707031 89.261719 C 78.707031 83.464844 83.40625 78.769531 89.203125 78.769531 Z M 89.203125 78.769531 " clip-rule="nonzero"/></clipPath><clipPath id="84ebe8b18b"><path d="M 0.707031 0.769531 L 68.171875 0.769531 L 68.171875 68.230469 L 0.707031 68.230469 Z M 0.707031 0.769531 " clip-rule="nonzero"/></clipPath><clipPath id="f9558ebdf6"><path d="M 11.203125 0.769531 L 57.675781 0.769531 C 63.472656 0.769531 68.171875 5.464844 68.171875 11.261719 L 68.171875 57.738281 C 68.171875 63.535156 63.472656 68.230469 57.675781 68.230469 L 11.203125 68.230469 C 5.40625 68.230469 0.707031 63.535156 0.707031 57.738281 L 0.707031 11.261719 C 0.707031 5.464844 5.40625 0.769531 11.203125 0.769531 Z M 11.203125 0.769531 " clip-rule="nonzero"/></clipPath><clipPath id="717968eaed"><rect x="0" width="69" y="0" height="69"/></clipPath><clipPath id="b76d48ed2b"><path d="M 89.4375 96 L 135.164062 96 L 135.164062 128.894531 L 89.4375 128.894531 Z M 89.4375 96 " clip-rule="nonzero"/></clipPath></defs><g clip-path="url(#e34fce5b42)"><g clip-path="url(#5ac43db02f)"><g transform="matrix(1, 0, 0, 1, 78, 78)"><g clip-path="url(#717968eaed)"><g clip-path="url(#84ebe8b18b)"><g clip-path="url(#f9558ebdf6)"><path fill="#293c71" d="M 0.707031 0.769531 L 68.171875 0.769531 L 68.171875 68.230469 L 0.707031 68.230469 Z M 0.707031 0.769531 " fill-opacity="1" fill-rule="nonzero"/></g></g></g></g></g></g><g clip-path="url(#b76d48ed2b)"><path fill="#fedc97" d="M 134.09375 97.246094 C 132.761719 95.910156 130.59375 95.910156 129.257812 97.246094 L 105.683594 120.820312 L 95.613281 110.75 C 94.277344 109.417969 92.113281 109.417969 90.777344 110.75 C 89.441406 112.085938 89.441406 114.253906 90.777344 115.585938 L 103.265625 128.074219 C 103.9375 128.75 104.8125 129.082031 105.683594 129.082031 C 106.554688 129.082031 107.441406 128.75 108.101562 128.074219 L 134.09375 102.082031 C 135.429688 100.746094 135.429688 98.578125 134.09375 97.246094 Z M 134.09375 97.246094 " fill-opacity="1" fill-rule="nonzero"/></g></svg>