<svg xmlns="http://www.w3.org/2000/svg" xmlns:xlink="http://www.w3.org/1999/xlink" width="300" zoomAndPan="magnify" viewBox="0 0 224.87999 225" height="300" preserveAspectRatio="xMidYMid meet" version="1.0"><defs><clipPath id="f21faaa692"><path d="M 78.707031 78.769531 L 146.171875 78.769531 L 146.171875 146.230469 L 78.707031 146.230469 Z M 78.707031 78.769531 " clip-rule="nonzero"/></clipPath><clipPath id="1bd2c07fbb"><path d="M 89.203125 78.769531 L 135.675781 78.769531 C 141.472656 78.769531 146.171875 83.464844 146.171875 89.261719 L 146.171875 135.738281 C 146.171875 141.535156 141.472656 146.230469 135.675781 146.230469 L 89.203125 146.230469 C 83.40625 146.230469 78.707031 141.535156 78.707031 135.738281 L 78.707031 89.261719 C 78.707031 83.464844 83.40625 78.769531 89.203125 78.769531 Z M 89.203125 78.769531 " clip-rule="nonzero"/></clipPath><clipPath id="ba3b6db130"><path d="M 0.707031 0.769531 L 68.171875 0.769531 L 68.171875 68.230469 L 0.707031 68.230469 Z M 0.707031 0.769531 " clip-rule="nonzero"/></clipPath><clipPath id="7971be762e"><path d="M 11.203125 0.769531 L 57.675781 0.769531 C 63.472656 0.769531 68.171875 5.464844 68.171875 11.261719 L 68.171875 57.738281 C 68.171875 63.535156 63.472656 68.230469 57.675781 68.230469 L 11.203125 68.230469 C 5.40625 68.230469 0.707031 63.535156 0.707031 57.738281 L 0.707031 11.261719 C 0.707031 5.464844 5.40625 0.769531 11.203125 0.769531 Z M 11.203125 0.769531 " clip-rule="nonzero"/></clipPath><clipPath id="f4b2250900"><rect x="0" width="69" y="0" height="69"/></clipPath><clipPath id="abc20c3dc8"><path d="M 91.324219 92.121094 L 133.300781 92.121094 L 133.300781 132.601562 L 91.324219 132.601562 Z M 91.324219 92.121094 " clip-rule="nonzero"/></clipPath></defs><g clip-path="url(#f21faaa692)"><g clip-path="url(#1bd2c07fbb)"><g transform="matrix(1, 0, 0, 1, 78, 78)"><g clip-path="url(#f4b2250900)"><g clip-path="url(#ba3b6db130)"><g clip-path="url(#7971be762e)"><path fill="#293c71" d="M 0.707031 0.769531 L 68.171875 0.769531 L 68.171875 68.230469 L 0.707031 68.230469 Z M 0.707031 0.769531 " fill-opacity="1" fill-rule="nonzero"/></g></g></g></g></g></g><g clip-path="url(#abc20c3dc8)"><path fill="#fedc97" d="M 123.25 132.4375 C 122.691406 132.4375 122.167969 132.308594 121.675781 132.046875 L 112.660156 127.308594 C 112.511719 127.230469 112.359375 127.230469 112.207031 127.308594 L 103.195312 132.046875 C 102.625 132.347656 102.019531 132.472656 101.378906 132.425781 C 100.734375 132.382812 100.15625 132.167969 99.632812 131.789062 C 99.113281 131.410156 98.730469 130.925781 98.488281 130.328125 C 98.246094 129.730469 98.179688 129.117188 98.289062 128.484375 L 100.011719 118.449219 C 100.039062 118.277344 99.992188 118.132812 99.867188 118.015625 L 92.582031 110.90625 C 92.117188 110.457031 91.8125 109.917969 91.65625 109.292969 C 91.503906 108.667969 91.527344 108.046875 91.726562 107.4375 C 91.925781 106.824219 92.269531 106.308594 92.765625 105.894531 C 93.257812 105.480469 93.824219 105.226562 94.460938 105.136719 L 104.527344 103.675781 C 104.699219 103.648438 104.820312 103.5625 104.894531 103.40625 L 109.398438 94.277344 C 109.683594 93.699219 110.097656 93.238281 110.644531 92.898438 C 111.191406 92.558594 111.785156 92.390625 112.429688 92.390625 C 113.074219 92.390625 113.667969 92.558594 114.214844 92.898438 C 114.761719 93.238281 115.175781 93.699219 115.460938 94.277344 L 119.964844 103.40625 C 120.039062 103.558594 120.164062 103.648438 120.332031 103.671875 L 130.410156 105.136719 C 131.046875 105.226562 131.613281 105.480469 132.105469 105.894531 C 132.597656 106.308594 132.941406 106.824219 133.144531 107.433594 C 133.34375 108.046875 133.363281 108.664062 133.210938 109.289062 C 133.058594 109.917969 132.75 110.453125 132.289062 110.902344 L 124.996094 118.007812 C 124.871094 118.128906 124.824219 118.273438 124.851562 118.441406 L 126.574219 128.476562 C 126.613281 128.71875 126.628906 128.964844 126.617188 129.207031 C 126.605469 129.453125 126.566406 129.695312 126.503906 129.933594 C 126.4375 130.171875 126.351562 130.398438 126.234375 130.617188 C 126.121094 130.832031 125.984375 131.035156 125.828125 131.226562 C 125.667969 131.414062 125.492188 131.582031 125.296875 131.730469 C 125.101562 131.882812 124.894531 132.007812 124.671875 132.113281 C 124.449219 132.21875 124.214844 132.296875 123.976562 132.351562 C 123.738281 132.402344 123.492188 132.429688 123.246094 132.429688 Z M 112.433594 124.359375 C 112.992188 124.359375 113.515625 124.488281 114.007812 124.75 L 123.019531 129.484375 C 123.199219 129.589844 123.371094 129.578125 123.535156 129.449219 C 123.703125 129.332031 123.769531 129.171875 123.730469 128.972656 L 122.007812 118.9375 C 121.914062 118.386719 121.953125 117.847656 122.125 117.320312 C 122.296875 116.792969 122.582031 116.332031 122.980469 115.945312 L 130.269531 108.835938 C 130.414062 108.695312 130.457031 108.527344 130.394531 108.335938 C 130.332031 108.144531 130.199219 108.03125 130 108.003906 L 119.921875 106.539062 C 119.371094 106.460938 118.871094 106.257812 118.421875 105.929688 C 117.972656 105.601562 117.625 105.1875 117.378906 104.691406 L 112.867188 95.558594 C 112.777344 95.378906 112.632812 95.289062 112.429688 95.289062 C 112.226562 95.289062 112.082031 95.378906 111.992188 95.558594 L 107.492188 104.6875 C 107.246094 105.1875 106.894531 105.597656 106.445312 105.925781 C 105.996094 106.253906 105.496094 106.457031 104.945312 106.535156 L 94.871094 108.003906 C 94.667969 108.03125 94.535156 108.144531 94.472656 108.335938 C 94.410156 108.527344 94.453125 108.695312 94.597656 108.835938 L 101.890625 115.945312 C 102.289062 116.332031 102.570312 116.792969 102.742188 117.320312 C 102.914062 117.847656 102.953125 118.386719 102.863281 118.9375 L 101.140625 128.972656 C 101.105469 129.171875 101.167969 129.332031 101.335938 129.449219 C 101.5 129.570312 101.671875 129.582031 101.851562 129.484375 L 110.859375 124.75 C 111.351562 124.488281 111.878906 124.359375 112.433594 124.359375 Z M 112.433594 124.359375 " fill-opacity="1" fill-rule="nonzero"/></g></svg>