<svg xmlns="http://www.w3.org/2000/svg" xmlns:xlink="http://www.w3.org/1999/xlink" width="300" zoomAndPan="magnify" viewBox="0 0 224.87999 225" height="300" preserveAspectRatio="xMidYMid meet" version="1.0"><defs><clipPath id="df3275c8a0"><path d="M 78.707031 78.769531 L 146.171875 78.769531 L 146.171875 146.230469 L 78.707031 146.230469 Z M 78.707031 78.769531 " clip-rule="nonzero"/></clipPath><clipPath id="60169f0552"><path d="M 89.203125 78.769531 L 135.675781 78.769531 C 141.472656 78.769531 146.171875 83.464844 146.171875 89.261719 L 146.171875 135.738281 C 146.171875 141.535156 141.472656 146.230469 135.675781 146.230469 L 89.203125 146.230469 C 83.40625 146.230469 78.707031 141.535156 78.707031 135.738281 L 78.707031 89.261719 C 78.707031 83.464844 83.40625 78.769531 89.203125 78.769531 Z M 89.203125 78.769531 " clip-rule="nonzero"/></clipPath><clipPath id="70dd1db17d"><path d="M 0.707031 0.769531 L 68.171875 0.769531 L 68.171875 68.230469 L 0.707031 68.230469 Z M 0.707031 0.769531 " clip-rule="nonzero"/></clipPath><clipPath id="7a9bdb7144"><path d="M 11.203125 0.769531 L 57.675781 0.769531 C 63.472656 0.769531 68.171875 5.464844 68.171875 11.261719 L 68.171875 57.738281 C 68.171875 63.535156 63.472656 68.230469 57.675781 68.230469 L 11.203125 68.230469 C 5.40625 68.230469 0.707031 63.535156 0.707031 57.738281 L 0.707031 11.261719 C 0.707031 5.464844 5.40625 0.769531 11.203125 0.769531 Z M 11.203125 0.769531 " clip-rule="nonzero"/></clipPath><clipPath id="47d6018ea2"><rect x="0" width="69" y="0" height="69"/></clipPath><clipPath id="9fae6290c8"><path d="M 91.324219 91.382812 L 133.300781 91.382812 L 133.300781 133.359375 L 91.324219 133.359375 Z M 91.324219 91.382812 " clip-rule="nonzero"/></clipPath></defs><g clip-path="url(#df3275c8a0)"><g clip-path="url(#60169f0552)"><g transform="matrix(1, 0, 0, 1, 78, 78)"><g clip-path="url(#47d6018ea2)"><g clip-path="url(#70dd1db17d)"><g clip-path="url(#7a9bdb7144)"><path fill="#293c71" d="M 0.707031 0.769531 L 68.171875 0.769531 L 68.171875 68.230469 L 0.707031 68.230469 Z M 0.707031 0.769531 " fill-opacity="1" fill-rule="nonzero"/></g></g></g></g></g></g><g clip-path="url(#9fae6290c8)"><path fill="#fedc97" d="M 112.433594 91.382812 C 118.261719 91.382812 123.542969 93.746094 127.363281 97.566406 C 131.183594 101.386719 133.546875 106.664062 133.546875 112.496094 C 133.546875 118.324219 131.183594 123.601562 127.363281 127.421875 C 123.542969 131.242188 118.261719 133.605469 112.433594 133.605469 C 106.605469 133.605469 101.328125 131.242188 97.507812 127.421875 C 93.6875 123.601562 91.324219 118.324219 91.324219 112.496094 C 91.324219 106.664062 93.6875 101.386719 97.507812 97.566406 C 101.328125 93.746094 106.605469 91.382812 112.433594 91.382812 Z M 125.03125 99.898438 C 121.808594 96.671875 117.355469 94.679688 112.433594 94.679688 C 107.515625 94.679688 103.0625 96.671875 99.835938 99.898438 C 96.613281 103.121094 94.621094 107.574219 94.621094 112.496094 C 94.621094 117.414062 96.613281 121.867188 99.835938 125.089844 C 103.0625 128.316406 107.515625 130.308594 112.433594 130.308594 C 117.355469 130.308594 121.808594 128.316406 125.03125 125.089844 C 128.253906 121.867188 130.25 117.414062 130.25 112.496094 C 130.25 107.574219 128.253906 103.121094 125.03125 99.898438 Z M 125.03125 99.898438 " fill-opacity="1" fill-rule="nonzero"/></g><path fill="#fedc97" d="M 104.425781 108.832031 C 103.683594 108.308594 103.507812 107.285156 104.03125 106.542969 C 104.554688 105.804688 105.578125 105.628906 106.316406 106.152344 L 112.316406 110.402344 L 119.6875 103.871094 C 120.367188 103.269531 121.40625 103.332031 122.007812 104.011719 C 122.609375 104.691406 122.542969 105.726562 121.863281 106.328125 L 113.535156 113.714844 C 112.964844 114.21875 112.117188 114.277344 111.488281 113.835938 Z M 104.425781 108.832031 " fill-opacity="1" fill-rule="nonzero"/></svg>